<?xml version="1.0" encoding="UTF-8" standalone="no"?>
<svg
   viewBox="0 0 512 512"
   version="1.1"
   id="svg433"
   sodipodi:docname="kodocoin_v1.svg"
   inkscape:version="1.2.2 (732a01da63, 2022-12-09)"
   xmlns:inkscape="http://www.inkscape.org/namespaces/inkscape"
   xmlns:sodipodi="http://sodipodi.sourceforge.net/DTD/sodipodi-0.dtd"
   xmlns="http://www.w3.org/2000/svg"
   xmlns:svg="http://www.w3.org/2000/svg">
  <defs
     id="defs437" />
  <sodipodi:namedview
     id="namedview435"
     pagecolor="#505050"
     bordercolor="#ffffff"
     borderopacity="1"
     inkscape:showpageshadow="0"
     inkscape:pageopacity="0"
     inkscape:pagecheckerboard="1"
     inkscape:deskcolor="#505050"
     showgrid="false"
     inkscape:zoom="0.66331787"
     inkscape:cx="-55.026408"
     inkscape:cy="122.86719"
     inkscape:window-width="1368"
     inkscape:window-height="850"
     inkscape:window-x="-6"
     inkscape:window-y="-6"
     inkscape:window-maximized="1"
     inkscape:current-layer="svg433" />
  <title
     id="title387" />
  <path
     d="m 256.93067,44.30537 c -116.30898,0 -210.93473,94.05782 -210.93473,209.67182 0,115.61399 94.62575,209.67432 210.93473,209.67432 116.31025,0 210.93474,-94.06033 210.93474,-209.67432 0,-115.614 -94.62449,-209.67182 -210.93474,-209.67182"
     style="fill:#e9b522;fill-opacity:1;fill-rule:nonzero;stroke:none;stroke-width:0.12615"
     id="path14" />
  <g
     id="g3027"
     transform="matrix(0.6561617,0,0,0.65224092,300.57848,476.03806)">
    <g
       id="g2865">
      <path
         d="m 104.5768,-523.10663 c -32.709,-0.909 -81.22,39.3 -93.288,49.782 a 229.234,229.234 0 0 1 66,43.736 c 27.34,25.826 46.746,56.684 56.379,88.639 a 535.378,535.378 0 0 0 12.36,-58.83 c 9.727,-62.709 -3.85,-122.283 -41.451,-123.327 z"
         style="fill:#ce9811;fill-opacity:1"
         id="path389-6" />
      <path
         d="m -256.4412,-523.10663 c 32.709,-0.909 81.22,39.3 93.288,49.782 a 229.234,229.234 0 0 0 -66,43.736 c -27.34,25.826 -46.746,56.684 -56.379,88.639 a 535.378,535.378 0 0 1 -12.36,-58.83 c -9.727,-62.709 3.85,-122.283 41.451,-123.327 z"
         style="fill:#ce9811;fill-opacity:1"
         id="path393-2" />
      <path
         d="m 146.0308,-295.43463 c 0,99.57 -99.376,159.031 -221.963,159.031 -122.587,0 -221.963,-59.459 -221.963,-159.031 0,-99.572 99.376,-201.544 221.963,-201.544 122.587,0 221.963,101.974 221.963,201.544 z"
         style="fill:#ce9811;fill-opacity:1"
         id="path397-1" />
      <path
         d="m -75.9322,-136.40363 c 113.6,0 207.264,-51.062 220.39,-137.783 -37.972,-29.685 -135.369,-66.763 -220.39,-66.763 -85.021,0 -182.418,35.57 -220.39,66.763 13.126,86.724 106.79,137.783 220.39,137.783 z"
         style="fill:#ce9811;fill-opacity:1"
         id="path399-3" />
    </g>
    <g
       id="g1979"
       transform="matrix(0.96633996,0,0,0.96633996,-324.54971,-579.14566)">
      <path
         d="m 436.509,62.656 c -32.709,-0.909 -81.22,39.3 -93.288,49.782 a 229.234,229.234 0 0 1 66,43.736 c 27.34,25.826 46.746,56.684 56.379,88.639 a 535.378,535.378 0 0 0 12.36,-58.83 C 487.687,123.274 474.11,63.7 436.509,62.656 Z"
         style="fill:#f7de61;fill-opacity:1"
         id="path389" />
      <path
         d="m 417.779,111.139 c -13.3,-0.387 -29.756,7.806 -44.251,17.326 a 232.346,232.346 0 0 1 35.692,27.709 215.432,215.432 0 0 1 43.571,57.234 c 6.758,-52.625 -4.729,-101.389 -35.012,-102.269 z"
         style="fill:#bb363d"
         id="path391" />
      <path
         d="m 75.491,62.656 c 32.709,-0.909 81.22,39.3 93.288,49.782 a 229.234,229.234 0 0 0 -66,43.736 C 75.439,182 56.033,212.858 46.4,244.813 A 535.378,535.378 0 0 1 34.04,185.983 C 24.313,123.274 37.89,63.7 75.491,62.656 Z"
         style="fill:#f7de61;fill-opacity:1"
         id="path393" />
      <path
         d="m 94.221,111.139 c 13.3,-0.387 29.756,7.806 44.251,17.326 A 232.346,232.346 0 0 0 102.78,156.174 215.432,215.432 0 0 0 59.209,213.408 C 52.451,160.783 63.938,112.019 94.221,111.139 Z"
         style="fill:#bb363d"
         id="path395" />
      <path
         d="m 477.963,290.328 c 0,99.57 -99.376,159.031 -221.963,159.031 -122.587,0 -221.963,-59.459 -221.963,-159.031 0,-99.572 99.376,-201.544 221.963,-201.544 122.587,0 221.963,101.974 221.963,201.544 z"
         style="fill:#e9b522;fill-opacity:1"
         id="path397" />
      <path
         d="m 256,449.359 c 113.6,0 207.264,-51.062 220.39,-137.783 C 438.418,281.891 341.021,244.813 256,244.813 c -85.021,0 -182.418,35.57 -220.39,66.763 C 48.736,398.3 142.4,449.359 256,449.359 Z"
         style="fill:#f7de61;fill-opacity:1"
         id="path399" />
      <path
         d="m 73.578,244.32 c -0.283,-3.488 -14.461,-5.438 -30.8,-5.973 a 175.569,175.569 0 0 0 -4.98,18.01 C 56.4,253.123 73.9,248.261 73.578,244.32 Z"
         style="fill:#e5585b"
         id="path401" />
      <path
         d="m 35.684,267.917 a 156.548,156.548 0 0 0 -1.537,16.667 c 14.966,-4.288 30.111,-10.534 29.386,-14.207 -0.65,-3.299 -13.939,-3.663 -27.849,-2.46 z"
         style="fill:#e5585b"
         id="path403" />
      <path
         d="m 243.129,89.16 c 0.812,33.307 6.518,78.028 13.438,78.028 6.92,0 12.617,-44.66 13.433,-77.959 q -6.948,-0.443 -14,-0.445 -6.481,0 -12.871,0.376 z"
         style="fill:#e5585b"
         id="path405" />
      <path
         d="m 212.371,93.136 c 5,21.769 13.437,46.622 18.134,45.8 4.669,-0.82 4.165,-26.755 1.49,-48.84 q -9.949,1.086 -19.624,3.04 z"
         style="fill:#e5585b"
         id="path407" />
      <path
         d="m 185.564,100.279 c 5.728,15.466 14.216,32.207 18.065,31.069 3.849,-1.138 1.868,-19.762 -1.731,-35.842 q -8.298,2.087 -16.334,4.773 z"
         style="fill:#e5585b"
         id="path409" />
      <path
         d="m 282.628,138.933 c 4.682,0.822 13.077,-23.858 18.083,-45.577 q -9.647,-1.99 -19.588,-3.137 c -2.661,22.056 -3.154,47.895 1.505,48.714 z"
         style="fill:#e5585b"
         id="path411" />
      <path
         d="m 311.173,95.778 c -3.56,16.02 -5.491,34.439 -1.668,35.57 3.823,1.131 12.213,-15.358 17.938,-30.731 q -8.002,-2.71 -16.27,-4.839 z"
         style="fill:#e5585b"
         id="path413" />
      <path
         d="m 469.226,238.347 c -16.343,0.535 -30.509,2.485 -30.793,5.973 -0.319,3.941 17.169,8.8 35.773,12.037 a 175.569,175.569 0 0 0 -4.98,-18.01 z"
         style="fill:#e5585b"
         id="path415" />
      <path
         d="m 476.316,267.917 c -13.911,-1.2 -27.188,-0.839 -27.839,2.46 -0.724,3.673 14.41,9.919 29.376,14.207 a 156.548,156.548 0 0 0 -1.537,-16.667 z"
         style="fill:#e5585b"
         id="path417" />
      <path
         d="m 256,253.428 c -8.555,0 -29.536,1.206 -25.91,13.842 3.626,12.636 15.833,27.63 25.91,27.63 10.077,0 22.285,-14.991 25.91,-27.626 3.625,-12.635 -17.355,-13.846 -25.91,-13.846 z"
         style="fill:#323232"
         id="path419" />
      <g
         data-name="Layer 2"
         id="Layer_2">
        <path
           d="m 328.008,377.747 c 1.084,0.488 1.991,-1.282 1.4,-2.719 -5.35,-12.908 -25.423,-51.706 -73.4,-51.706 -47.977,0 -68.053,38.8 -73.4,51.706 -0.6,1.437 0.311,3.207 1.395,2.719 8.57,-3.855 35.245,-14.334 72.008,-14.334 36.763,0 63.427,10.479 71.997,14.334 z"
           style="fill:#323232"
           id="path422" />
        <ellipse
           cx="183.274"
           cy="210.63901"
           rx="27.112"
           ry="34.174"
           style="fill:#323232"
           id="ellipse424" />
        <ellipse
           cx="328.72601"
           cy="210.63901"
           rx="27.112"
           ry="34.174"
           style="fill:#323232"
           id="ellipse426" />
        <path
           d="m 396.789,153.328 c -7.88,-5.016 -30.506,-16.521 -61.537,-7.629 -17.106,4.9 -31.975,15.726 -39.849,22.541 a 7.875,7.875 0 0 0 -0.552,11.407 l 0.029,0.031 a 7.851,7.851 0 0 0 10.772,0.55 138.373,138.373 0 0 1 29.148,-19.665 c 25.158,-12.807 52.015,-8.287 61.483,-6.052 a 0.651,0.651 0 0 0 0.506,-1.183 z"
           style="fill:#323232"
           id="path428" />
        <path
           d="m 115.211,153.328 c 7.88,-5.016 30.506,-16.521 61.537,-7.629 17.106,4.9 31.975,15.726 39.849,22.541 a 7.875,7.875 0 0 1 0.552,11.407 l -0.029,0.031 a 7.851,7.851 0 0 1 -10.772,0.55 138.373,138.373 0 0 0 -29.148,-19.665 c -25.158,-12.807 -52.015,-8.287 -61.483,-6.052 a 0.651,0.651 0 0 1 -0.506,-1.183 z"
           style="fill:#323232"
           id="path430" />
      </g>
    </g>
  </g>
  <path
     d="m 256.93067,44.30537 c -116.30898,0 -210.93473,94.05782 -210.93473,209.67182 0,115.61399 94.62575,209.67432 210.93473,209.67432 116.31025,0 210.93474,-94.06033 210.93474,-209.67432 0,-115.614 -94.62449,-209.67182 -210.93474,-209.67182 z m 0,460.45746 C 117.81616,504.76283 4.6374994,392.26045 4.6374994,253.97719 4.6374994,115.69393 117.81616,3.1902959 256.93067,3.1902959 c 139.11452,0 252.29318,112.5036341 252.29318,250.7868941 0,138.28326 -113.17866,250.78564 -252.29318,250.78564"
     style="fill:#f7de61;fill-opacity:1;fill-rule:nonzero;stroke:none;stroke-width:0.12615"
     id="path16" />
  <path
     d="M 20.213189,253.97719 C 20.213189,118.24712 129.24423,7.3785253 264.81341,3.3160654 262.25753,3.2406018 259.69532,3.1902959 257.12047,3.1902959 118.00595,3.1902959 4.8272924,115.69393 4.8272924,253.97719 c 0,138.28326 113.1786576,250.78564 252.2931776,250.78564 2.57485,0 5.13706,-0.0503 7.69294,-0.12704 C 129.24423,500.57837 20.213189,389.70097 20.213189,253.97719"
     style="fill:#e0c955;fill-opacity:1;fill-rule:nonzero;stroke:none;stroke-width:0.12615"
     id="path20" />
  <path
     d="m 256.93067,44.30537 c -2.25348,0 -4.49683,0.05028 -6.73385,0.113195 113.20396,3.546789 204.19961,96.184645 204.19961,209.558625 0,113.37398 -90.99565,206.00805 -204.19961,209.55736 2.23702,0.0691 4.48037,0.11696 6.73385,0.11696 116.31025,0 210.93474,-94.06033 210.93474,-209.67432 0,-115.614 -94.62449,-209.67182 -210.93474,-209.67182"
     style="fill:#ce9811;fill-opacity:1;fill-rule:nonzero;stroke:none;stroke-width:0.12615"
     id="path22" />
</svg>
