<?xml version="1.0" encoding="UTF-8" standalone="no"?>
<!-- Created with Inkscape (http://www.inkscape.org/) -->

<svg
   xmlns:dc="http://purl.org/dc/elements/1.1/"
   xmlns:cc="http://creativecommons.org/ns#"
   xmlns:rdf="http://www.w3.org/1999/02/22-rdf-syntax-ns#"
   xmlns:svg="http://www.w3.org/2000/svg"
   xmlns="http://www.w3.org/2000/svg"
   xmlns:sodipodi="http://sodipodi.sourceforge.net/DTD/sodipodi-0.dtd"
   xmlns:inkscape="http://www.inkscape.org/namespaces/inkscape"
   width="14mm"
   height="19mm"
   viewBox="0 0 49.606291 67.32284"
   id="svg4765"
   version="1.1"
   inkscape:version="0.91 r13725"
   sodipodi:docname="pnl_edit.svg">
  <defs
     id="defs4767" />
  <sodipodi:namedview
     id="base"
     pagecolor="#ffffff"
     bordercolor="#666666"
     borderopacity="1.0"
     inkscape:pageopacity="0.0"
     inkscape:pageshadow="2"
     inkscape:zoom="7.9195959"
     inkscape:cx="-1.671842"
     inkscape:cy="35.423884"
     inkscape:document-units="px"
     inkscape:current-layer="layer1"
     showgrid="false"
     inkscape:window-width="1600"
     inkscape:window-height="837"
     inkscape:window-x="-8"
     inkscape:window-y="-8"
     inkscape:window-maximized="1"
     showguides="true"
     inkscape:guide-bbox="true" />
  <metadata
     id="metadata4770">
    <rdf:RDF>
      <cc:Work
         rdf:about="">
        <dc:format>image/svg+xml</dc:format>
        <dc:type
           rdf:resource="http://purl.org/dc/dcmitype/StillImage" />
        <dc:title></dc:title>
      </cc:Work>
    </rdf:RDF>
  </metadata>
  <g
     inkscape:label="Layer 1"
     inkscape:groupmode="layer"
     id="layer1"
     transform="translate(0,-985.0394)">
    <g
       id="g4176"
       transform="matrix(0.95134471,0,0,0.96075026,1.213996,39.993994)">
      <path
         inkscape:connector-curvature="0"
         id="path4144"
         d="m 0.98554985,994.29283 9.58478515,-8.0804 38.344862,53.83027 0.472789,11.7011 -10.057565,-3.6207 z"
         style="fill:none;fill-rule:evenodd;stroke:#000000;stroke-width:3.25200009;stroke-linecap:butt;stroke-linejoin:miter;stroke-miterlimit:4;stroke-dasharray:none;stroke-opacity:1" />
      <path
         inkscape:connector-curvature="0"
         id="path4148"
         d="M 4.4642819,998.96938 14.28571,990.39795"
         style="fill:none;fill-rule:evenodd;stroke:#000000;stroke-width:1px;stroke-linecap:butt;stroke-linejoin:miter;stroke-opacity:1" />
      <path
         inkscape:connector-curvature="0"
         id="path4150"
         d="m 6.6071391,1001.8265 9.6428569,-8.03569"
         style="fill:none;fill-rule:evenodd;stroke:#000000;stroke-width:3.20000005;stroke-linecap:butt;stroke-linejoin:miter;stroke-miterlimit:4;stroke-dasharray:none;stroke-opacity:1" />
      <path
         inkscape:connector-curvature="0"
         id="path4152"
         d="m 9.6249063,1005.4629 9.9999997,-8.39282"
         style="fill:none;fill-rule:evenodd;stroke:#000000;stroke-width:3.20000005;stroke-linecap:butt;stroke-linejoin:miter;stroke-miterlimit:4;stroke-dasharray:none;stroke-opacity:1" />
      <path
         inkscape:connector-curvature="0"
         id="path4154"
         d="m 2.9238641,996.45487 c -0.7349334,-1.03683 -1.3080511,-1.95869 -1.273595,-2.04857 0.097412,-0.2541 8.9779529,-7.71807 9.1828649,-7.71807 0.100005,0 0.405585,0.33327 0.679067,0.74059 0.273482,0.40732 0.859202,1.24182 1.301602,1.85445 l 0.804359,1.11388 -4.5197696,3.97143 c -2.4858733,2.18429 -4.5914359,3.97145 -4.6790279,3.97145 -0.087592,0 -0.7605671,-0.84833 -1.4955004,-1.88516 z"
         style="fill:#000000;fill-opacity:1;stroke:none;stroke-width:3.33599997;stroke-miterlimit:4;stroke-dasharray:none;stroke-opacity:1" />
      <path
         inkscape:connector-curvature="0"
         id="path4156"
         d="m 46.214475,1050.3419 3.156727,-3.0304"
         style="fill:none;fill-rule:evenodd;stroke:#000000;stroke-width:1px;stroke-linecap:butt;stroke-linejoin:miter;stroke-opacity:1" />
      <path
         inkscape:connector-curvature="0"
         id="path4158"
         d="m 48.045487,1050.6841 c -0.600812,-0.2036 -1.131759,-0.3863 -1.17988,-0.4057 -0.07319,-0.028 0.09886,-0.2033 1.051405,-1.0618 0.626394,-0.5647 1.148699,-1.0267 1.16068,-1.0267 0.0121,0 0.03621,0.373 0.05383,0.8291 0.01763,0.4559 0.04558,1.1025 0.06214,1.4369 0.01753,0.3544 0.01222,0.606 -0.01278,0.6033 -0.02362,0 -0.534509,-0.1712 -1.135321,-0.3751 z"
         style="fill:#000000;fill-opacity:1;stroke:none;stroke-width:3.33599997;stroke-miterlimit:4;stroke-dasharray:none;stroke-opacity:1" />
    </g>
  </g>
</svg>
