<?xml version="1.0" encoding="UTF-8" standalone="no"?>
<!-- Created with Inkscape (http://www.inkscape.org/) -->

<svg
   xmlns:dc="http://purl.org/dc/elements/1.1/"
   xmlns:cc="http://creativecommons.org/ns#"
   xmlns:rdf="http://www.w3.org/1999/02/22-rdf-syntax-ns#"
   xmlns:svg="http://www.w3.org/2000/svg"
   xmlns="http://www.w3.org/2000/svg"
   xmlns:sodipodi="http://sodipodi.sourceforge.net/DTD/sodipodi-0.dtd"
   xmlns:inkscape="http://www.inkscape.org/namespaces/inkscape"
   width="14mm"
   height="19mm"
   viewBox="0 0 49.606291 67.32284"
   id="svg4765"
   version="1.1"
   inkscape:version="0.91 r13725"
   sodipodi:docname="pnl_edit_b.svg">
  <defs
     id="defs4767" />
  <sodipodi:namedview
     id="base"
     pagecolor="#ffffff"
     bordercolor="#666666"
     borderopacity="1.0"
     inkscape:pageopacity="0.0"
     inkscape:pageshadow="2"
     inkscape:zoom="7.9195959"
     inkscape:cx="-3.210477"
     inkscape:cy="34.127175"
     inkscape:document-units="px"
     inkscape:current-layer="layer1"
     showgrid="false"
     inkscape:window-width="1600"
     inkscape:window-height="837"
     inkscape:window-x="-8"
     inkscape:window-y="-8"
     inkscape:window-maximized="1"
     showguides="true"
     inkscape:guide-bbox="true" />
  <metadata
     id="metadata4770">
    <rdf:RDF>
      <cc:Work
         rdf:about="">
        <dc:format>image/svg+xml</dc:format>
        <dc:type
           rdf:resource="http://purl.org/dc/dcmitype/StillImage" />
        <dc:title />
      </cc:Work>
    </rdf:RDF>
  </metadata>
  <g
     inkscape:label="Layer 1"
     inkscape:groupmode="layer"
     id="layer1"
     transform="translate(0,-985.0394)">
    <g
       id="g4192"
       style="fill:#ffffff;fill-opacity:1">
      <path
         inkscape:connector-curvature="0"
         id="path4144"
         d="m 2.1515936,995.26109 9.1184344,-7.76325 36.479182,51.71746 0.449785,11.2418 -9.568211,-3.4786 z"
         style="fill:#ffffff;fill-rule:evenodd;stroke:#ffffff;stroke-width:3.10902882;stroke-linecap:butt;stroke-linejoin:miter;stroke-miterlimit:4;stroke-dasharray:none;stroke-opacity:1;fill-opacity:1" />
      <path
         inkscape:connector-curvature="0"
         id="path4148"
         d="m 5.461067,999.75409 9.343564,-8.23501"
         style="fill:#ffffff;fill-rule:evenodd;stroke:#ffffff;stroke-width:0.95603591px;stroke-linecap:butt;stroke-linejoin:miter;stroke-opacity:1;fill-opacity:1" />
      <path
         inkscape:connector-curvature="0"
         id="path4150"
         d="m 7.4996628,1002.4991 9.1736812,-7.72033"
         style="fill:#ffffff;fill-rule:evenodd;stroke:#ffffff;stroke-width:3.05931497;stroke-linecap:butt;stroke-linejoin:miter;stroke-miterlimit:4;stroke-dasharray:none;stroke-opacity:1;fill-opacity:1" />
      <path
         inkscape:connector-curvature="0"
         id="path4152"
         d="m 10.3706,1005.9927 9.513447,-8.06337"
         style="fill:#ffffff;fill-rule:evenodd;stroke:#ffffff;stroke-width:3.05931497;stroke-linecap:butt;stroke-linejoin:miter;stroke-miterlimit:4;stroke-dasharray:none;stroke-opacity:1;fill-opacity:1" />
      <path
         inkscape:connector-curvature="0"
         id="path4154"
         d="m 3.9955986,997.33827 c -0.699175,-0.99614 -1.2444075,-1.88181 -1.2116278,-1.96816 0.092672,-0.24413 8.5411282,-7.41514 8.7360702,-7.41514 0.09514,0 0.385851,0.32019 0.646027,0.71152 0.260175,0.39133 0.817397,1.19308 1.238272,1.78166 l 0.765222,1.07016 -4.2998585,3.81556 c -2.3649224,2.09855 -4.3680383,3.81557 -4.4513685,3.81557 -0.08333,0 -0.7235614,-0.81504 -1.4227364,-1.81117 z"
         style="fill:#ffffff;fill-opacity:1;stroke:none;stroke-width:3.33599997;stroke-miterlimit:4;stroke-dasharray:none;stroke-opacity:1" />
      <path
         inkscape:connector-curvature="0"
         id="path4156"
         d="m 45.179892,1049.1102 3.003136,-2.9114"
         style="fill:#ffffff;fill-rule:evenodd;stroke:#ffffff;stroke-width:0.95603591px;stroke-linecap:butt;stroke-linejoin:miter;stroke-opacity:1;fill-opacity:1" />
      <path
         inkscape:connector-curvature="0"
         id="path4158"
         d="m 46.921816,1049.439 c -0.571579,-0.1956 -1.076693,-0.3711 -1.122473,-0.3898 -0.06963,-0.027 0.09405,-0.1953 1.000249,-1.0201 0.595917,-0.5425 1.092809,-0.9864 1.104207,-0.9864 0.01151,0 0.03445,0.3584 0.05121,0.7966 0.01677,0.438 0.04336,1.0592 0.05912,1.3805 0.01668,0.3405 0.01163,0.5822 -0.01216,0.5796 -0.02247,0 -0.508502,-0.1645 -1.080082,-0.3604 z"
         style="fill:#ffffff;fill-opacity:1;stroke:none;stroke-width:3.33599997;stroke-miterlimit:4;stroke-dasharray:none;stroke-opacity:1" />
    </g>
  </g>
</svg>
