<?xml version="1.0" encoding="UTF-8" standalone="no"?>
<svg
   viewBox="0 0 512 512"
   version="1.1"
   id="svg4548"
   sodipodi:docname="6378853_cat_emoji_expression_pout_pouting_icon.svg"
   inkscape:version="1.2.2 (732a01da63, 2022-12-09)"
   xmlns:inkscape="http://www.inkscape.org/namespaces/inkscape"
   xmlns:sodipodi="http://sodipodi.sourceforge.net/DTD/sodipodi-0.dtd"
   xmlns="http://www.w3.org/2000/svg"
   xmlns:svg="http://www.w3.org/2000/svg">
  <defs
     id="defs4552" />
  <sodipodi:namedview
     id="namedview4550"
     pagecolor="#505050"
     bordercolor="#ffffff"
     borderopacity="1"
     inkscape:showpageshadow="0"
     inkscape:pageopacity="0"
     inkscape:pagecheckerboard="1"
     inkscape:deskcolor="#505050"
     showgrid="false"
     inkscape:zoom="0.4609375"
     inkscape:cx="135.59322"
     inkscape:cy="257.08475"
     inkscape:window-width="1368"
     inkscape:window-height="850"
     inkscape:window-x="-6"
     inkscape:window-y="-6"
     inkscape:window-maximized="1"
     inkscape:current-layer="svg4548" />
  <title
     id="title4502" />
  <g
     id="g2865"
     transform="matrix(1.017746,0,0,1.0116647,334.19495,594.02238)">
    <path
       d="m 104.5768,-523.10663 c -32.709,-0.909 -81.22,39.3 -93.288,49.782 a 229.234,229.234 0 0 1 66,43.736 c 27.34,25.826 46.746,56.684 56.379,88.639 a 535.378,535.378 0 0 0 12.36,-58.83 c 9.727,-62.709 -3.85,-122.283 -41.451,-123.327 z"
       style="fill:#ce9811;fill-opacity:1"
       id="path389-6" />
    <path
       d="m -256.4412,-523.10663 c 32.709,-0.909 81.22,39.3 93.288,49.782 a 229.234,229.234 0 0 0 -66,43.736 c -27.34,25.826 -46.746,56.684 -56.379,88.639 a 535.378,535.378 0 0 1 -12.36,-58.83 c -9.727,-62.709 3.85,-122.283 41.451,-123.327 z"
       style="fill:#ce9811;fill-opacity:1"
       id="path393-2" />
    <path
       d="m 146.0308,-295.43463 c 0,99.57 -99.376,159.031 -221.963,159.031 -122.587,0 -221.963,-59.459 -221.963,-159.031 0,-99.572 99.376,-201.544 221.963,-201.544 122.587,0 221.963,101.974 221.963,201.544 z"
       style="fill:#ce9811;fill-opacity:1"
       id="path397-1" />
    <path
       d="m -75.9322,-136.40363 c 113.6,0 207.264,-51.062 220.39,-137.783 -37.972,-29.685 -135.369,-66.763 -220.39,-66.763 -85.021,0 -182.418,35.57 -220.39,66.763 13.126,86.724 106.79,137.783 220.39,137.783 z"
       style="fill:#ce9811;fill-opacity:1"
       id="path399-3" />
  </g>
  <path
     d="M 433.18742,69.374419 C 401.01849,68.48577 353.30847,107.79457 341.43973,118.0419 a 225.44903,224.10192 0 0 1 64.91025,42.75684 c 26.88858,25.24781 45.97416,55.41496 55.44811,86.65455 a 526.53818,523.39197 0 0 0 12.15592,-57.51291 C 483.5204,128.6353 470.16758,70.395046 433.18742,69.374419 Z"
     style="fill:#f7de61;fill-opacity:1;stroke-width:0.980546"
     id="path389" />
  <path
     d="m 414.76668,116.77198 c -13.0804,-0.37833 -29.26469,7.63124 -43.52036,16.93811 a 228.50965,227.14424 0 0 1 35.10268,27.08865 211.87492,210.60891 0 0 1 42.85158,55.95265 c 6.64642,-51.44684 -4.65092,-99.11911 -34.4339,-99.97941 z"
     style="fill:#bb363d;stroke-width:0.980546"
     id="path391" />
  <path
     d="M 78.130321,69.374419 C 110.29925,68.48577 158.00927,107.79457 169.87801,118.0419 a 225.44903,224.10192 0 0 0 -64.91025,42.75684 C 78.07918,186.04655 58.993599,216.2137 49.519653,247.45329 A 526.53818,523.39197 0 0 1 37.363734,189.94038 C 27.79734,128.6353 41.150165,70.395046 78.130321,69.374419 Z"
     style="fill:#f7de61;fill-opacity:1;stroke-width:0.980546"
     id="path393" />
  <path
     d="m 96.551063,116.77198 c 13.080397,-0.37833 29.264687,7.63124 43.520357,16.93811 a 228.50965,227.14424 0 0 0 -35.10268,27.08865 211.87492,210.60891 0 0 0 -42.851581,55.95265 c -6.646416,-51.44684 4.650918,-99.11911 34.433904,-99.97941 z"
     style="fill:#bb363d;stroke-width:0.980546"
     id="path395" />
  <path
     d="m 473.95696,291.94931 c 0,97.34082 -97.73517,155.47061 -218.29809,155.47061 -120.56292,0 -218.298087,-58.12783 -218.298087,-155.47061 0,-97.34279 97.735167,-197.031844 218.298087,-197.031844 120.56292,0 218.29809,99.691014 218.29809,197.031844 z"
     style="fill:#e9b522;fill-opacity:1;stroke-width:0.980546"
     id="path397" />
  <path
     d="m 255.65887,447.41992 c 111.72431,0 203.84179,-49.91882 216.75106,-134.69831 -37.34503,-29.02042 -133.13387,-65.26832 -216.75106,-65.26832 -83.61719,0 -179.406029,34.77366 -216.751059,65.26832 12.909272,84.78242 105.026749,134.69831 216.751059,134.69831 z"
     style="fill:#f7de61;fill-opacity:1;stroke-width:0.980546"
     id="path399" />
  <path
     d="m 76.248907,246.97133 c -0.278327,-3.40991 -14.222229,-5.31625 -30.29145,-5.83928 a 172.67012,171.63837 0 0 0 -4.897773,17.6068 c 18.294856,-3.1616 35.505907,-7.91475 35.189223,-11.76752 z"
     style="fill:#e5585b;stroke-width:0.980546"
     id="path401" />
  <path
     d="m 38.980589,270.04004 a 153.96318,153.04321 0 0 0 -1.511622,16.29386 c 14.718891,-4.192 29.613826,-10.29816 28.900797,-13.88893 -0.639268,-3.22514 -13.708848,-3.581 -27.389175,-2.40493 z"
     style="fill:#e5585b;stroke-width:0.980546"
     id="path403" />
  <path
     d="m 243.00039,95.285048 c 0.79859,32.561322 6.41038,76.281112 13.21612,76.281112 6.80574,0 12.40867,-43.66015 13.2112,-76.213657 q -6.83328,-0.433082 -13.76884,-0.435037 -6.37399,0 -12.65848,0.367582 z"
     style="fill:#e5585b;stroke-width:0.980546"
     id="path405" />
  <path
     d="m 212.75024,99.172034 c 4.91745,21.281636 13.21514,45.578226 17.83459,44.774626 4.59191,-0.80164 4.09623,-26.15601 1.4654,-47.746567 q -9.78473,1.061687 -19.29999,2.971941 z"
     style="fill:#e5585b;stroke-width:0.980546"
     id="path407" />
  <path
     d="m 186.38586,106.15512 c 5.63343,15.11974 13.98128,31.48595 17.76673,30.37342 3.78544,-1.11252 1.83715,-19.31956 -1.70242,-35.03957 q -8.16099,2.04028 -16.06431,4.66615 z"
     style="fill:#e5585b;stroke-width:0.980546"
     id="path409" />
  <path
     d="m 281.84721,143.94373 c 4.60469,0.8036 12.86108,-23.32387 17.78442,-44.556622 q -9.48771,-1.945448 -19.26458,-3.066769 c -2.61706,21.562211 -3.10192,46.822731 1.48016,47.623391 z"
     style="fill:#e5585b;stroke-width:0.980546"
     id="path411" />
  <path
     d="m 309.92089,101.75488 c -3.50122,15.66135 -5.40034,33.66799 -1.64046,34.77366 3.75988,1.10568 12.01135,-15.01416 17.64182,-30.04299 q -7.86988,-2.64933 -16.00136,-4.73067 z"
     style="fill:#e5585b;stroke-width:0.980546"
     id="path413" />
  <path
     d="m 465.36422,241.13205 c -16.07316,0.52303 -30.00526,2.42937 -30.28457,5.83928 -0.31373,3.85277 16.88552,8.60299 35.18234,11.76752 a 172.67012,171.63837 0 0 0 -4.89777,-17.6068 z"
     style="fill:#e5585b;stroke-width:0.980546"
     id="path415" />
  <path
     d="m 472.33715,270.04004 c -13.68131,-1.17313 -26.73909,-0.82021 -27.37934,2.40493 -0.71204,3.59077 14.17207,9.69693 28.89096,13.88893 a 153.96318,153.04321 0 0 0 -1.51162,-16.29386 z"
     style="fill:#e5585b;stroke-width:0.980546"
     id="path417" />
  <path
     d="m 255.65887,255.87542 c -8.41375,0 -29.04832,1.179 -25.48219,13.53211 3.56613,12.3531 15.57158,27.01142 25.48219,27.01142 9.91062,0 21.91704,-14.65538 25.48219,-27.00751 3.56515,-12.35213 -17.06844,-13.53602 -25.48219,-13.53602 z"
     style="fill:#323232;stroke-width:0.980546"
     id="path419" />
  <g
     data-name="Layer 2"
     id="Layer_2-7"
     transform="matrix(0.98348863,0,0,0.97761203,3.8857808,8.1211596)">
    <path
       d="m 328.008,377.747 c 1.084,0.488 1.991,-1.282 1.4,-2.719 -5.35,-12.908 -25.423,-51.706 -73.4,-51.706 -47.977,0 -68.053,38.8 -73.4,51.706 -0.6,1.437 0.311,3.207 1.395,2.719 8.57,-3.855 35.245,-14.334 72.008,-14.334 36.763,0 63.427,10.479 71.997,14.334 z"
       style="fill:#323232"
       id="path422" />
    <ellipse
       cx="183.274"
       cy="210.63901"
       rx="27.112"
       ry="34.174"
       style="fill:#323232"
       id="ellipse424" />
    <ellipse
       cx="328.72601"
       cy="210.63901"
       rx="27.112"
       ry="34.174"
       style="fill:#323232"
       id="ellipse426" />
    <path
       d="m 396.789,153.328 c -7.88,-5.016 -30.506,-16.521 -61.537,-7.629 -17.106,4.9 -31.975,15.726 -39.849,22.541 a 7.875,7.875 0 0 0 -0.552,11.407 l 0.029,0.031 a 7.851,7.851 0 0 0 10.772,0.55 138.373,138.373 0 0 1 29.148,-19.665 c 25.158,-12.807 52.015,-8.287 61.483,-6.052 a 0.651,0.651 0 0 0 0.506,-1.183 z"
       style="fill:#323232"
       id="path428" />
    <path
       d="m 115.211,153.328 c 7.88,-5.016 30.506,-16.521 61.537,-7.629 17.106,4.9 31.975,15.726 39.849,22.541 a 7.875,7.875 0 0 1 0.552,11.407 l -0.029,0.031 a 7.851,7.851 0 0 1 -10.772,0.55 138.373,138.373 0 0 0 -29.148,-19.665 c -25.158,-12.807 -52.015,-8.287 -61.483,-6.052 a 0.651,0.651 0 0 1 -0.506,-1.183 z"
       style="fill:#323232"
       id="path430" />
  </g>
</svg>
