<?xml version="1.0" ?><svg viewBox="0 0 512 512" xmlns="http://www.w3.org/2000/svg"><title/><g data-name="Layer 1" id="Layer_1"><path d="M436.509,62.656c-32.709-.909-81.22,39.3-93.288,49.782a229.234,229.234,0,0,1,66,43.736C436.561,182,455.967,212.858,465.6,244.813a535.378,535.378,0,0,0,12.36-58.83C487.687,123.274,474.11,63.7,436.509,62.656Z" style="fill:#e5585b"/><path d="M417.779,111.139c-13.3-.387-29.756,7.806-44.251,17.326a232.346,232.346,0,0,1,35.692,27.709,215.432,215.432,0,0,1,43.571,57.234C459.549,160.783,448.062,112.019,417.779,111.139Z" style="fill:#bb363d"/><path d="M75.491,62.656c32.709-.909,81.22,39.3,93.288,49.782a229.234,229.234,0,0,0-66,43.736C75.439,182,56.033,212.858,46.4,244.813a535.378,535.378,0,0,1-12.36-58.83C24.313,123.274,37.89,63.7,75.491,62.656Z" style="fill:#e5585b"/><path d="M94.221,111.139c13.3-.387,29.756,7.806,44.251,17.326a232.346,232.346,0,0,0-35.692,27.709,215.432,215.432,0,0,0-43.571,57.234C52.451,160.783,63.938,112.019,94.221,111.139Z" style="fill:#bb363d"/><path d="M477.963,290.328c0,99.57-99.376,159.031-221.963,159.031S34.037,389.9,34.037,290.328,133.413,88.784,256,88.784,477.963,190.758,477.963,290.328Z" style="fill:#da363d"/><path d="M256,449.359c113.6,0,207.264-51.062,220.39-137.783C438.418,281.891,341.021,244.813,256,244.813S73.582,280.383,35.61,311.576C48.736,398.3,142.4,449.359,256,449.359Z" style="fill:#e5585b"/><path d="M73.578,244.32c-.283-3.488-14.461-5.438-30.8-5.973a175.569,175.569,0,0,0-4.98,18.01C56.4,253.123,73.9,248.261,73.578,244.32Z" style="fill:#e5585b"/><path d="M35.684,267.917a156.548,156.548,0,0,0-1.537,16.667c14.966-4.288,30.111-10.534,29.386-14.207C62.883,267.078,49.594,266.714,35.684,267.917Z" style="fill:#e5585b"/><path d="M243.129,89.16c.812,33.307,6.518,78.028,13.438,78.028S269.184,122.528,270,89.229q-6.948-.443-14-.445Q249.519,88.784,243.129,89.16Z" style="fill:#e5585b"/><path d="M212.371,93.136c5,21.769,13.437,46.622,18.134,45.8,4.669-.82,4.165-26.755,1.49-48.84Q222.046,91.182,212.371,93.136Z" style="fill:#e5585b"/><path d="M185.564,100.279c5.728,15.466,14.216,32.207,18.065,31.069s1.868-19.762-1.731-35.842Q193.6,97.593,185.564,100.279Z" style="fill:#e5585b"/><path d="M282.628,138.933c4.682.822,13.077-23.858,18.083-45.577q-9.647-1.99-19.588-3.137C278.462,112.275,277.969,138.114,282.628,138.933Z" style="fill:#e5585b"/><path d="M311.173,95.778c-3.56,16.02-5.491,34.439-1.668,35.57s12.213-15.358,17.938-30.731Q319.441,97.907,311.173,95.778Z" style="fill:#e5585b"/><path d="M469.226,238.347c-16.343.535-30.509,2.485-30.793,5.973-.319,3.941,17.169,8.8,35.773,12.037A175.569,175.569,0,0,0,469.226,238.347Z" style="fill:#e5585b"/><path d="M476.316,267.917c-13.911-1.2-27.188-.839-27.839,2.46-.724,3.673,14.41,9.919,29.376,14.207A156.548,156.548,0,0,0,476.316,267.917Z" style="fill:#e5585b"/><path d="M256,253.428c-8.555,0-29.536,1.206-25.91,13.842S245.923,294.9,256,294.9s22.285-14.991,25.91-27.626S264.555,253.428,256,253.428Z" style="fill:#323232"/></g><g data-name="Layer 2" id="Layer_2"><path d="M452.161,247.338c-.014-.031-27.751-58.719-27.751-58.719s-28.687,58.827-28.7,58.85a30.7,30.7,0,1,0,56.448-.131Z" style="fill:#00ceff"/><path d="M122.607,312.559c-.016-.035-31.537-66.727-31.537-66.727s-32.6,66.85-32.611,66.877a34.887,34.887,0,1,0,64.148-.15Z" style="fill:#00ceff"/><path d="M250.049,134.768c-.01-.023-20.06-42.447-20.06-42.447l-20.745,42.542a22.192,22.192,0,1,0,40.805-.095Z" style="fill:#00ceff"/><ellipse cx="256" cy="364.223" rx="87.221" ry="51.119" style="fill:#323232"/><path d="M339.166,178.868A113.5,113.5,0,0,1,322.834,166.6a8.147,8.147,0,0,1-2.751-5.625,6.728,6.728,0,0,1,2.2-5.4,8.046,8.046,0,0,1,9.616-.606,8.964,8.964,0,0,1,1.3.968c3.453,3.1,11.307,11.439,23.445,17.579,21.585,10.919,38.719,8.909,46.551,7.8.557-.078,2.209-.342,2.633.437.68,1.248-.719,2.12-1.383,2.5-6.492,3.753-19.76,8.5-45.254,2.656A76.472,76.472,0,0,1,339.166,178.868Z" style="fill:#323232"/><circle cx="183.274" cy="213.129" r="27.112" style="fill:#323232"/><circle cx="328.726" cy="213.129" r="27.112" style="fill:#323232"/><path d="M172.834,178.868A113.5,113.5,0,0,0,189.166,166.6a8.147,8.147,0,0,0,2.751-5.625,6.728,6.728,0,0,0-2.2-5.4,8.046,8.046,0,0,0-9.616-.606,8.964,8.964,0,0,0-1.295.968c-3.453,3.1-11.307,11.439-23.445,17.579-21.585,10.919-38.719,8.909-46.551,7.8-.557-.078-2.209-.342-2.633.437-.68,1.248.719,2.12,1.383,2.5,6.492,3.753,19.76,8.5,45.254,2.656A76.472,76.472,0,0,0,172.834,178.868Z" style="fill:#323232"/><path d="M308.04,344.478v68.643a52.04,52.04,0,0,1-104.08,0V344.5c4.175-3.41,11.962-8.7,20.927-9.545,12.682-1.186,21.753,1.134,26.718,3a26.6,26.6,0,0,1,4.4,2.03,26.6,26.6,0,0,1,4.395-2.03c4.965-1.863,14.036-4.183,26.718-3C296.078,335.8,303.865,341.077,308.04,344.478Z" style="fill:#e63464"/><path d="M260.4,337.948v91.723a4.4,4.4,0,0,1-8.79,0V337.948a26.6,26.6,0,0,1,4.4,2.03A26.6,26.6,0,0,1,260.4,337.948Z" style="fill:#cd275a"/></g></svg>