<?xml version="1.0" encoding="UTF-8" standalone="no"?>
<!-- Created with Inkscape (http://www.inkscape.org/) -->

<svg
   width="181"
   height="132"
   viewBox="0 0 47.889557 34.924989"
   version="1.1"
   id="svg146010"
   xml:space="preserve"
   inkscape:version="1.2.2 (732a01da63, 2022-12-09)"
   sodipodi:docname="upload_icon.svg"
   xmlns:inkscape="http://www.inkscape.org/namespaces/inkscape"
   xmlns:sodipodi="http://sodipodi.sourceforge.net/DTD/sodipodi-0.dtd"
   xmlns="http://www.w3.org/2000/svg"
   xmlns:svg="http://www.w3.org/2000/svg"><sodipodi:namedview
     id="namedview146012"
     pagecolor="#505050"
     bordercolor="#ffffff"
     borderopacity="1"
     inkscape:showpageshadow="0"
     inkscape:pageopacity="0"
     inkscape:pagecheckerboard="1"
     inkscape:deskcolor="#505050"
     inkscape:document-units="mm"
     showgrid="false"
     inkscape:zoom="1.6819304"
     inkscape:cx="290.44008"
     inkscape:cy="125.74837"
     inkscape:window-width="1810"
     inkscape:window-height="921"
     inkscape:window-x="31"
     inkscape:window-y="22"
     inkscape:window-maximized="0"
     inkscape:current-layer="layer1" /><defs
     id="defs146007" /><g
     inkscape:label="Layer 1"
     inkscape:groupmode="layer"
     id="layer1"><path
       style="fill:#8b0000;fill-opacity:1;stroke:none;stroke-width:0.157309"
       d="m 9.9104858,34.922668 c 0,-0.08652 -0.3497686,-0.157311 -0.7772612,-0.157311 -0.4274952,0 -0.8159644,-0.06262 -0.8632666,-0.139157 C 8.222656,34.54966 7.8645317,34.439142 7.4741258,34.380597 7.0837225,34.322057 6.764299,34.2077 6.764299,34.126484 c 0,-0.08122 -0.1693969,-0.147672 -0.3764413,-0.147672 -0.2070444,0 -0.4171897,-0.106185 -0.4669922,-0.235964 -0.0498,-0.12978 -0.2343467,-0.235966 -0.4101015,-0.235966 -0.1757574,0 -0.3195558,-0.07079 -0.3195558,-0.157308 0,-0.08652 -0.0743,-0.15731 -0.1651079,-0.15731 -0.090808,0 -0.4202192,-0.247761 -0.7320227,-0.550582 C 3.982274,32.338861 3.6678459,32.0911 3.59535,32.0911 c -0.157562,0 -1.0784019,-0.941996 -1.0784019,-1.103181 0,-0.06196 -0.2112354,-0.352319 -0.4694158,-0.645231 C 1.7893545,30.049773 1.5769867,29.727526 1.5756055,29.626585 1.5742855,29.525647 1.5200005,29.419464 1.4551117,29.390622 1.2692445,29.308012 0.78654656,28.372418 0.78654656,28.094767 c 0,-0.13806 -0.070789,-0.251018 -0.1573106,-0.251018 -0.086519,0 -0.1573081,-0.171075 -0.1573081,-0.380167 0,-0.209087 -0.088487,-0.409681 -0.1966383,-0.445759 -0.2840963,-0.09477 -0.2840963,-6.433661 0,-6.528316 0.1081511,-0.03603 0.1966383,-0.165801 0.1966383,-0.288369 0,-0.122571 0.070789,-0.222856 0.1573081,-0.222856 0.086521,0 0.1573106,-0.167095 0.1573106,-0.371322 0,-0.204226 0.1769719,-0.632105 0.39327144,-0.950841 0.2163022,-0.318738 0.393274,-0.647165 0.393274,-0.729845 0,-0.08268 0.066019,-0.150323 0.1467088,-0.150323 0.08069,0 0.1910451,-0.139692 0.245237,-0.31043 0.130564,-0.411375 2.5654582,-2.835757 2.8480517,-2.835757 0.1214438,0 0.220808,-0.06311 0.220808,-0.140256 0,-0.07714 0.1769719,-0.184671 0.393274,-0.238961 0.2162996,-0.05429 0.3932714,-0.168145 0.3932714,-0.253015 0,-0.08487 0.1061852,-0.154313 0.235966,-0.154313 0.192831,0 0.2359634,-0.267425 0.2359634,-1.462977 0,-0.804637 0.063926,-1.530225 0.1420574,-1.612421 0.078132,-0.08219 0.1772047,-0.467995 0.2201598,-0.8573346 0.079544,-0.720979 0.4314216,-2.0596754 0.5789162,-2.2024498 0.1792156,-0.173482 0.63196,-1.140468 0.63196,-1.3497587 0,-0.1227693 0.070789,-0.2232157 0.157308,-0.2232157 0.086521,0 0.1573107,-0.1061852 0.1573107,-0.2359633 0,-0.1297808 0.066019,-0.235966 0.1467088,-0.235966 0.08069,0 0.193421,-0.1471745 0.2505128,-0.3270568 0.1391178,-0.438322 3.070291,-3.3793641 3.505777,-3.5175824 0.189394,-0.060113 0.344352,-0.175313 0.344352,-0.2560029 0,-0.08069 0.106185,-0.1467088 0.235964,-0.1467088 0.12978,0 0.235966,-0.067583 0.235966,-0.1501802 0,-0.0826 0.247761,-0.1966621 0.550582,-0.2534708 0.302821,-0.0568113 0.550582,-0.16620333 0.550582,-0.24309389 0,-0.0768906 0.176974,-0.13980054 0.393274,-0.13980054 0.216299,0 0.393274,-0.065696 0.393274,-0.14599179 0,-0.0802931 0.390273,-0.19475186 0.86728,-0.25434925 0.477001,-0.0595974 0.905915,-0.17087585 0.953138,-0.24728223 0.112135,-0.18143802 4.74173,-0.18143802 4.853863,0 0.04722,0.07640638 0.476136,0.18768483 0.95314,0.24728223 0.477005,0.0595974 0.867281,0.17405614 0.867281,0.25434925 0,0.0802958 0.176974,0.14599179 0.393274,0.14599179 0.216299,0 0.393274,0.0675799 0.393274,0.15018014 0,0.0826003 0.247761,0.19666214 0.550582,0.25347079 0.302821,0.056809 0.550582,0.1662007 0.550582,0.2430913 0,0.076893 0.106183,0.1398032 0.235963,0.1398032 0.129781,0 0.235964,0.06944 0.235964,0.1543129 0,0.08487 0.163372,0.1953154 0.363045,0.2454301 0.199676,0.050115 0.492749,0.2638319 0.651275,0.4749245 0.158522,0.2110951 0.419888,0.3838072 0.580808,0.3838072 0.160922,0 0.292584,0.067937 0.292584,0.1509686 0,0.083034 0.283157,0.4129564 0.629237,0.7331604 0.34608,0.3202067 0.629237,0.6448293 0.629237,0.7213838 0,0.076555 0.176975,0.3161638 0.393274,0.5324634 0.2163,0.2162995 0.393274,0.4806129 0.393274,0.5873591 0,0.1067488 0.138973,0.2942537 0.30883,0.416679 0.169857,0.1224254 0.352457,0.4212114 0.405773,0.663964 0.05332,0.2427552 0.162108,0.4413726 0.241752,0.4413726 0.07964,0 0.14481,0.1769745 0.14481,0.393274 0,0.3092185 0.07994,0.393274 0.374012,0.393274 0.205706,0 0.462137,-0.1061852 0.569844,-0.235966 0.107709,-0.1297781 0.263011,-0.2359633 0.345117,-0.2359633 0.0821,0 0.255468,-0.1061826 0.385249,-0.2359634 0.129778,-0.1297807 0.368308,-0.2359633 0.530061,-0.2359633 0.161756,0 0.337849,-0.070789 0.391321,-0.1573107 0.05347,-0.086519 0.305412,-0.157308 0.559867,-0.157308 0.254455,0 0.462645,-0.070789 0.462645,-0.1573107 0,-0.087394 0.419491,-0.157308 0.943853,-0.157308 0.524365,0 0.943856,0.069914 0.943856,0.157308 0,0.086521 0.247764,0.1573107 0.550585,0.1573107 0.302818,0 0.550582,0.070789 0.550582,0.157308 0,0.086521 0.171916,0.1573107 0.382037,0.1573107 0.210122,0 0.48822,0.1061826 0.618001,0.2359633 0.12978,0.1297808 0.281193,0.2359634 0.336473,0.2359634 0.192294,0 1.809676,1.6511058 1.809676,1.8474107 0,0.1086856 0.07079,0.197612 0.157308,0.197612 0.08652,0 0.15731,0.1415786 0.15731,0.3146187 0,0.1730402 0.06995,0.3146187 0.155448,0.3146187 0.0855,0 0.200732,0.2831566 0.256072,0.6292376 0.05534,0.34608 0.162359,0.629237 0.237823,0.629237 0.07546,0 0.137203,0.566312 0.137203,1.258472 0,0.692163 -0.06275,1.258475 -0.139449,1.258475 -0.0767,0 -0.189574,0.334275 -0.250841,0.742831 -0.06857,0.457229 -0.226636,0.823547 -0.411136,0.952775 -0.357005,0.250058 -0.399878,0.821343 -0.06164,0.821343 0.226703,0 0.367734,0.05459 1.104194,0.427366 0.175882,0.08903 0.547523,0.211886 0.825873,0.273024 0.278352,0.06114 0.506092,0.165174 0.506092,0.231195 0,0.06602 0.247761,0.253466 0.550582,0.416547 0.302821,0.163078 0.550585,0.3512 0.550585,0.418044 0,0.06685 0.07634,0.121537 0.169645,0.121537 0.209791,0 1.403446,1.189217 1.403446,1.398227 0,0.08362 0.176974,0.291238 0.393274,0.461381 0.216299,0.170143 0.393274,0.423042 0.393274,0.561998 0,0.13896 0.07079,0.252654 0.157308,0.252654 0.08652,0 0.15731,0.07779 0.15731,0.17286 0,0.259585 0.510398,1.305449 0.699696,1.433761 0.254297,0.172373 0.224489,5.976673 -0.03113,6.062065 -0.108151,0.03613 -0.196638,0.236762 -0.196638,0.445852 0,0.209089 -0.06516,0.380163 -0.144809,0.380163 -0.07964,0 -0.191455,0.212368 -0.248462,0.47193 -0.05701,0.259559 -0.153556,0.471927 -0.214548,0.471927 -0.06099,0 -0.235336,0.210666 -0.387432,0.468145 -0.295482,0.500211 -2.050862,2.312395 -2.555304,2.637989 -0.166936,0.107751 -0.568981,0.319122 -0.893431,0.469709 -0.324451,0.15059 -0.58991,0.327052 -0.58991,0.392139 0,0.06509 -0.283157,0.163621 -0.629238,0.218961 -0.34608,0.05534 -0.629237,0.162359 -0.629237,0.237824 0,0.07546 -0.353946,0.137202 -0.786548,0.137202 -0.432599,0 -0.786545,0.07079 -0.786545,0.157311 0,0.103756 -5.033899,0.157308 -14.787076,0.157308 -9.753179,0 -14.7870782,-0.05355 -14.7870782,-0.157308 z M 25.377363,28.742194 c 0.547826,-0.599 0.578673,-0.8774 0.578673,-5.222319 v -4.328139 l 2.870896,-0.005 c 3.199217,-0.0056 3.421478,-0.0667 3.421478,-0.940991 0,-0.47008 -0.450387,-0.967213 -4.865489,-5.370502 -2.67602,-2.668857 -4.937096,-4.852466 -5.024615,-4.852466 -0.08752,0 -0.202874,0.070789 -0.256347,0.157308 -0.05347,0.086521 -0.202125,0.1573106 -0.330337,0.1573106 -0.251804,0 -6.198,5.8920164 -6.198,6.1415264 0,0.08297 -0.06856,0.150845 -0.152344,0.150845 -0.233027,0 -2.679224,2.535187 -2.679224,2.776691 0,0.116702 -0.07079,0.212187 -0.157308,0.212187 -0.241385,0 -0.186672,1.094277 0.06742,1.348365 0.178628,0.178631 0.824,0.224729 3.146184,0.224729 h 2.92146 v 4.517109 c 0,5.744575 -0.364778,5.213512 3.590023,5.226561 2.161037,0.0071 2.928517,-0.04121 3.067531,-0.193212 z"
       id="path146143" /></g></svg>
