<?xml version="1.0" encoding="UTF-8"?><svg id="uuid-f6b51453-fd10-406f-8409-c20f478da8f1" xmlns="http://www.w3.org/2000/svg" xmlns:xlink="http://www.w3.org/1999/xlink" viewBox="0 0 750 150"><defs><linearGradient id="uuid-82181e38-3958-4176-8f88-56dbf97db95f" x1="121.48528" y1="121.48528" x2="28.51472" y2="28.51472" gradientUnits="userSpaceOnUse"><stop offset="0" stop-color="#bf00d3"/><stop offset="1" stop-color="#00a4d0"/></linearGradient><linearGradient id="uuid-1cf8c646-1810-4766-a8f2-91bed8992a6b" x1="590.65801" y1="229.39469" x2="284.89188" y2="-76.37144" xlink:href="#uuid-82181e38-3958-4176-8f88-56dbf97db95f"/></defs><rect x="25" y="25" width="100" height="100" rx="12" ry="12" style="fill:url(#uuid-82181e38-3958-4176-8f88-56dbf97db95f);"/><rect x="71" y="33.5" width="8" height="82.99999" rx="4" ry="4" transform="translate(74.99998 -31.06602) rotate(44.99999)" style="fill:#fff;"/><path d="m191.52738,79.99407c1.0069,2.09723,1.51013,4.68506,1.51013,7.75989,0,5.48212-1.92938,9.80255-5.78857,12.96185-3.85925,3.16028-9.1734,4.74017-15.94006,4.74017-4.69824,0-8.7395-.81171-12.1228-2.43304-3.38434-1.6214-6.44653-4.08173-9.1861-7.38263l7.55054-7.55054c1.78931,2.29401,3.81677,4.06909,6.08191,5.32733s5.04718,1.88739,8.34753,1.88739c2.96411,0,5.31317-.58716,7.04736-1.76147,1.73309-1.1748,2.6004-2.79614,2.6004-4.86609,0-1.78931-.50317-3.24274-1.51007-4.36243-1.00641-1.11816-2.336-2.0553-3.98462-2.8103-1.6507-.75507-3.46881-1.45398-5.45331-2.09729-1.98596-.64276-3.95734-1.3847-5.91449-2.22314-1.95868-.83905-3.77527-1.90106-5.45325-3.18811-1.67804-1.28607-3.00708-2.90747-3.98462-4.86615-.97961-1.95715-1.46869-4.47369-1.46869-7.55054,0-3.57849.86682-6.62756,2.60101-9.14404,1.73309-2.51703,4.11102-4.4469,7.13123-5.78906,3.01971-1.34222,6.43085-2.01331,10.23499-2.01331,4.02655,0,7.67639.755,10.948,2.26514,3.27203,1.51007,5.91449,3.46826,7.92828,5.8725l-7.55054,7.55054c-1.73413-1.90051-3.51074-3.29938-5.32733-4.19452-1.81812-.8941-3.8739-1.34271-6.16632-1.34271-2.62933,0-4.69824.51788-6.20837,1.55206-1.51007,1.03577-2.26514,2.47504-2.26514,4.32098,0,1.62238.50372,2.9231,1.51013,3.9007,1.0069.97955,2.3349,1.84589,3.98511,2.60095,1.64917.75507,3.48145,1.46814,5.49524,2.13922,2.01331.67108,3.9978,1.4408,5.95648,2.30713,1.95715.86786,3.76062,1.95819,5.41132,3.27203,1.64868,1.31439,2.97821,3.02026,3.98462,5.11749Zm11.40875,24.53894h10.98993v-60.65552h-10.98993v60.65552Zm51.42596-40.521h11.07446v40.521h-11.07446v-3.81805c-1.10699,1.15308-2.39307,2.13196-3.9007,2.89514-2.32178,1.1748-4.93689,1.7619-7.84436,1.7619-3.69128,0-7.00531-.92291-9.94159-2.76831-2.93628-1.84595-5.24341-4.36292-6.9209-7.55054-1.67798-3.18811-2.51697-6.76666-2.51697-10.73865,0-4.0271.83899-7.63446,2.51697-10.82257,1.67749-3.18762,3.98462-5.70465,6.9209-7.55005,2.93628-1.84589,6.27759-2.76886,10.02557-2.76886,2.85229,0,5.42444.58716,7.71844,1.76196,1.51593.77655,2.8175,1.76843,3.94263,2.93646v-3.85944Zm.67108,20.30249c0-2.12506-.44806-4.0271-1.34216-5.70459-.89514-1.67804-2.09729-2.97827-3.60736-3.90118-1.51013-.92297-3.3009-1.38422-5.36932-1.38422-2.01331,0-3.78943.47589-5.32733,1.42615-1.53894.95178-2.74109,2.23737-3.60736,3.85925-.86786,1.62286-1.30023,3.49554-1.30023,5.62067,0,2.18115.43237,4.08325,1.30023,5.70459.86627,1.62286,2.08307,2.90894,3.64929,3.85919,1.56525.95178,3.32721,1.42615,5.2854,1.42615,3.07532,0,5.56451-1.03418,7.46655-3.10364,1.90106-2.06891,2.85229-4.66937,2.85229-7.80237Zm32.97046-11.1579c.83905-.50317,2.09729-.75507,3.77527-.75507,1.73315,0,3.36865.34998,4.90759,1.0484,1.5379.70044,2.92212,1.77661,4.15308,3.2301l6.62756-6.71155c-1.79077-2.34912-4.04132-4.09637-6.75354-5.24335-2.7132-1.14551-5.74658-1.72003-9.1026-1.72003-3.18811,0-5.95642.51788-8.30554,1.55212-2.34912,1.03571-4.16724,2.51697-5.45331,4.44635-1.28705,1.92987-1.92932,4.18188-1.92932,6.75348,0,2.46191.50317,4.47571,1.51007,6.04041,1.00696,1.56677,2.27832,2.78302,3.81726,3.64935,1.53741.86786,3.17346,1.55206,4.90759,2.05579,1.73315.50323,3.36914.97906,4.90808,1.42615,1.53741.44806,2.81036.96497,3.81726,1.55206,1.00641.58716,1.51007,1.44037,1.51007,2.55853,0,.95178-.47589,1.69263-1.42615,2.22314-.95178.53253-2.32178.79706-4.11102.79706-2.18121,0-4.19452-.39044-6.04047-1.17432-1.8454-.7829-3.43945-1.9845-4.78162-3.60736l-6.62811,6.62756c1.34271,1.56622,2.93677,2.9231,4.78217,4.0686,1.84595,1.14697,3.87238,2.01379,6.0824,2.60095,2.20856.58716,4.48834.88098,6.83746.88098,4.8656,0,8.72479-1.16016,11.57715-3.48193,2.85278-2.31976,4.27893-5.46594,4.27893-9.43793,0-2.46039-.49054-4.47363-1.46814-6.04041-.97955-1.56525-2.23779-2.82349-3.77521-3.77527-1.53894-.95026-3.16083-1.69116-4.86615-2.22321-1.70685-.53101-3.34235-1.01953-4.90759-1.46808-1.56671-.44708-2.82501-.93616-3.77527-1.46814-.95178-.53101-1.42615-1.30023-1.42615-2.30713,0-.89417.41925-1.59406,1.25824-2.09729Zm59.14343-8.01172c-2.34857-1.3139-5.06232-1.97186-8.13666-1.97186-3.07684,0-5.81787.67114-8.22211,2.01385-1.27039.70886-2.38239,1.5719-3.35602,2.56952v-23.87891h-10.9895v60.65552h10.9895v-23.23871c0-1.56525.34894-2.97821,1.04889-4.23651.69891-1.25873,1.66382-2.22314,2.89478-2.89429,1.22888-.67157,2.62775-1.0069,4.19452-1.0069,2.34857,0,4.27844.75507,5.78802,2.2652,1.51013,1.51007,2.26569,3.46826,2.26569,5.8725v23.23871h11.07343v-25.75574c0-3.07483-.67059-5.78857-2.01282-8.13763-1.3432-2.34912-3.18811-4.18036-5.53772-5.49475Zm75.16846-10.90656c1.7326,2.76837,2.6004,6.05511,2.6004,9.85767,0,3.80408-.8678,7.10345-2.6004,9.89966-1.73468,2.79718-4.09741,4.94952-7.08929,6.45966-2.99292,1.51007-6.3631,2.26514-10.10956,2.26514h-11.82898v21.81256h-11.40924v-58.97754h23.23822c3.74646,0,7.11664.75507,10.10956,2.2652,2.99188,1.51007,5.35461,3.64929,7.08929,6.41766Zm-8.89276,9.85767c0-1.90051-.40662-3.53656-1.2168-4.90759-.81116-1.37-1.94397-2.43304-3.39746-3.18811-1.45551-.75507-3.07684-1.13281-4.86609-1.13281h-10.65472v18.54102h10.65472c1.78925,0,3.41058-.37781,4.86609-1.13287,1.45349-.755,2.5863-1.81653,3.39746-3.18811.81018-1.36951,1.2168-3.03333,1.2168-4.99152Zm46.30957-.08398h11.07349v40.521h-11.07349v-3.81866c-1.10693,1.15326-2.39307,2.13245-3.90118,2.89575-2.32129,1.1748-4.93695,1.7619-7.84485,1.7619-3.69086,0-7.00439-.92291-9.94061-2.76831-2.93628-1.84595-5.24341-4.36292-6.92139-7.55054-1.67804-3.18811-2.51752-6.76666-2.51752-10.73865,0-4.0271.83948-7.63446,2.51752-10.82257,1.67798-3.18762,3.98511-5.70465,6.92139-7.55005,2.93622-1.84589,6.2771-2.76886,10.02454-2.76886,2.85333,0,5.42444.58716,7.71844,1.76196,1.51654.77667,2.8183,1.76868,3.94366,2.93689v-3.85986Zm.67065,20.30249c0-2.12506-.44812-4.0271-1.34229-5.70459-.89514-1.67804-2.09674-2.97827-3.60687-3.90118-1.51007-.92297-3.30139-1.38422-5.36981-1.38422-2.01379,0-3.78992.47589-5.32733,1.42615-1.53839.95178-2.74103,2.23737-3.60687,3.85925-.8678,1.62286-1.30072,3.49554-1.30072,5.62067,0,2.18115.43292,4.08325,1.30072,5.70459.86584,1.62286,2.08264,2.90894,3.64935,3.85919,1.56476.95178,3.32666,1.42615,5.28485,1.42615,3.07587,0,5.56506-1.03418,7.46667-3.10364,1.90039-2.06891,2.85229-4.66937,2.85229-7.80237Zm39.05371,5.39886l-9.18848-25.70135h-12.08081l15.43689,37.0351-9.7323,20.5163h11.745l7.38269-16.69458,18.12122-40.85681h-12.08093l-9.60327,25.70135Zm85.27441-24.65247c-2.40515-1.25873-5.11694-1.88788-8.13708-1.88788s-5.76135.65796-8.22217,1.97186c-1.96472,1.04895-3.62097,2.4422-4.99658,4.14996-1.25281-1.75623-2.81824-3.18176-4.73462-4.23395-2.29407-1.25873-4.83875-1.88788-7.6344-1.88788-2.9657,0-5.62073.62915-7.97034,1.88788-1.26428.67737-2.375,1.51733-3.35608,2.49463v-3.54352h-10.9895v40.521h10.9895v-23.82587c0-1.62134.349-2.99139,1.04895-4.11108.69885-1.11816,1.62134-1.97131,2.76831-2.55847,1.146-.58765,2.44666-.88098,3.90125-.88098,2.18164,0,3.99829.65796,5.45374,1.97137,1.45349,1.31488,2.18079,3.14612,2.18079,5.49524v23.90979h11.07434v-23.82587c0-1.62134.349-2.99139,1.04895-4.11108.69788-1.11816,1.62134-1.97131,2.76831-2.55847,1.14502-.58765,2.4751-.88098,3.98511-.88098,2.12402,0,3.91333.65796,5.3689,1.97137,1.45337,1.31488,2.18164,3.14612,2.18164,5.49524v23.90979h11.15747v-25.58783c0-3.29938-.71313-6.12439-2.1394-8.47345-1.42603-2.34863-3.34277-4.15253-5.74707-5.41083Zm54.78259,7.84387c1.67798,3.07684,2.51648,6.57294,2.51648,10.48676,0,.72778-.02832,1.46814-.08398,2.22321-.05664.75507-.19617,1.58093-.41968,2.47504l-29.58984.07275c.2207.81812.49194,1.60071.85632,2.3183.92249,1.81812,2.25061,3.20227,3.98523,4.15259,1.73254.95178,3.74634,1.42615,6.04028,1.42615,2.06848,0,3.94275-.33533,5.62073-1.00641,1.6781-.67108,3.13147-1.73315,4.36243-3.18811l6.54419,6.54364c-2.07056,2.34906-4.50305,4.11102-7.29883,5.28534-2.79761,1.1748-5.84509,1.76196-9.14453,1.76196-4.2511,0-8.04102-.92297-11.36768-2.76886-3.32874-1.8454-5.94336-4.36243-7.84387-7.55005-1.90259-3.18811-2.85242-6.82324-2.85242-10.90649,0-4.02716.93567-7.63452,2.80994-10.82208,1.87317-3.18811,4.43225-5.70514,7.67688-7.55054,3.2428-1.84595,6.87891-2.76886,10.90552-2.76886,3.80322,0,7.21484.8678,10.23499,2.60095,3.02014,1.73413,5.36975,4.1394,7.04785,7.21472Zm-26.80457,4.90808c-.32446.65857-.56787,1.37738-.77075,2.12604l19.55383-.05652c-.20837-.96014-.49561-1.83539-.87122-2.61517-.78394-1.6214-1.87524-2.85236-3.27209-3.69135-1.3988-.83899-3.13342-1.25824-5.2019-1.25824-2.18079,0-4.08325.47589-5.70471,1.42615-1.62231.95178-2.86646,2.30713-3.73315,4.06909Zm67.36597-12.41663c-2.32129-1.48126-4.99146-2.22321-8.01172-2.22321-3.0769,0-5.83105.67114-8.26367,2.01385-1.32263.72949-2.47388,1.62604-3.48242,2.66125v-3.83612h-10.9895v40.521h10.9895v-23.23871c0-1.56525.349-2.97821,1.04895-4.23651.69885-1.25873,1.66382-2.22314,2.89478-2.89429,1.22888-.67157,2.62781-1.0069,4.19446-1.0069,2.34863,0,4.27856.75507,5.78857,2.2652,1.51013,1.51007,2.26562,3.46826,2.26562,5.8725v23.23871h11.07349v-25.75574c0-2.68439-.67065-5.21454-2.0127-7.59198-1.34326-2.37689-3.17505-4.30627-5.49536-5.78906Zm44.9248-1.38422h-9.48022v-16.86249h-10.9895v16.86249h-9.48047v9.64783h9.48047v30.87317h10.9895v-30.87317h9.48022v-9.64783Z" style="fill:url(#uuid-1cf8c646-1810-4766-a8f2-91bed8992a6b);"/></svg>